<mxfile host="app.diagrams.net" agent="Mozilla/5.0 (X11; Linux x86_64; rv:128.0) Gecko/20100101 Firefox/128.0" version="26.2.9">
  <diagram name="Page-1" id="QYlumS-lN80QCUaAXQkb">
    <mxGraphModel dx="1774" dy="1931" grid="1" gridSize="10" guides="1" tooltips="1" connect="1" arrows="1" fold="1" page="1" pageScale="1" pageWidth="850" pageHeight="1100" math="0" shadow="0">
      <root>
        <mxCell id="0" />
        <mxCell id="1" parent="0" />
        <mxCell id="Gtfet5FwH3J6q3p8mjaK-22" style="edgeStyle=orthogonalEdgeStyle;rounded=0;orthogonalLoop=1;jettySize=auto;html=1;entryX=0.5;entryY=0;entryDx=0;entryDy=0;" parent="1" source="M_QnOvEOiUY6tevbWSJs-2" target="M_QnOvEOiUY6tevbWSJs-24" edge="1">
          <mxGeometry relative="1" as="geometry" />
        </mxCell>
        <mxCell id="M_QnOvEOiUY6tevbWSJs-2" value="Início" style="ellipse;whiteSpace=wrap;html=1;" parent="1" vertex="1">
          <mxGeometry x="277.5" y="-110" width="120" height="80" as="geometry" />
        </mxCell>
        <mxCell id="M_QnOvEOiUY6tevbWSJs-34" style="edgeStyle=orthogonalEdgeStyle;rounded=0;orthogonalLoop=1;jettySize=auto;html=1;entryX=1;entryY=0.5;entryDx=0;entryDy=0;" parent="1" source="M_QnOvEOiUY6tevbWSJs-8" target="M_QnOvEOiUY6tevbWSJs-17" edge="1">
          <mxGeometry relative="1" as="geometry" />
        </mxCell>
        <mxCell id="6NojlRm1C0mRp0ljfeSa-46" style="edgeStyle=orthogonalEdgeStyle;rounded=0;orthogonalLoop=1;jettySize=auto;html=1;" edge="1" parent="1" source="M_QnOvEOiUY6tevbWSJs-17" target="M_QnOvEOiUY6tevbWSJs-23">
          <mxGeometry relative="1" as="geometry" />
        </mxCell>
        <mxCell id="M_QnOvEOiUY6tevbWSJs-17" value="salva apenas buscas novas no DB de pesquisas" style="rounded=0;whiteSpace=wrap;html=1;" parent="1" vertex="1">
          <mxGeometry x="80" y="420" width="120" height="60" as="geometry" />
        </mxCell>
        <mxCell id="6NojlRm1C0mRp0ljfeSa-27" style="edgeStyle=orthogonalEdgeStyle;rounded=0;orthogonalLoop=1;jettySize=auto;html=1;entryX=0.5;entryY=0;entryDx=0;entryDy=0;" edge="1" parent="1" source="M_QnOvEOiUY6tevbWSJs-18" target="6NojlRm1C0mRp0ljfeSa-18">
          <mxGeometry relative="1" as="geometry" />
        </mxCell>
        <mxCell id="M_QnOvEOiUY6tevbWSJs-18" value="Salva no DB de pesquisas recorrentes" style="rounded=0;whiteSpace=wrap;html=1;" parent="1" vertex="1">
          <mxGeometry x="500" y="420" width="120" height="60" as="geometry" />
        </mxCell>
        <mxCell id="Gtfet5FwH3J6q3p8mjaK-2" style="edgeStyle=orthogonalEdgeStyle;rounded=0;orthogonalLoop=1;jettySize=auto;html=1;" parent="1" source="M_QnOvEOiUY6tevbWSJs-23" target="Gtfet5FwH3J6q3p8mjaK-4" edge="1">
          <mxGeometry relative="1" as="geometry">
            <mxPoint x="76.2065217391305" y="1080" as="targetPoint" />
          </mxGeometry>
        </mxCell>
        <mxCell id="M_QnOvEOiUY6tevbWSJs-23" value="Acessa API e verificação" style="rounded=0;whiteSpace=wrap;html=1;" parent="1" vertex="1">
          <mxGeometry x="80" y="570" width="120" height="60" as="geometry" />
        </mxCell>
        <mxCell id="6NojlRm1C0mRp0ljfeSa-35" style="edgeStyle=orthogonalEdgeStyle;rounded=0;orthogonalLoop=1;jettySize=auto;html=1;entryX=0.5;entryY=0;entryDx=0;entryDy=0;" edge="1" parent="1" source="M_QnOvEOiUY6tevbWSJs-24" target="6NojlRm1C0mRp0ljfeSa-34">
          <mxGeometry relative="1" as="geometry" />
        </mxCell>
        <mxCell id="M_QnOvEOiUY6tevbWSJs-24" value="Usuário acessa o container" style="verticalLabelPosition=middle;verticalAlign=middle;html=1;shape=trapezoid;perimeter=trapezoidPerimeter;whiteSpace=wrap;size=0.23;arcSize=10;flipV=1;labelPosition=center;align=center;" parent="1" vertex="1">
          <mxGeometry x="280" y="-10" width="115" height="80" as="geometry" />
        </mxCell>
        <mxCell id="6NojlRm1C0mRp0ljfeSa-47" style="edgeStyle=orthogonalEdgeStyle;rounded=0;orthogonalLoop=1;jettySize=auto;html=1;entryX=0;entryY=0;entryDx=0;entryDy=0;" edge="1" parent="1" source="M_QnOvEOiUY6tevbWSJs-26" target="M_QnOvEOiUY6tevbWSJs-8">
          <mxGeometry relative="1" as="geometry">
            <mxPoint x="280" y="360" as="targetPoint" />
            <Array as="points">
              <mxPoint x="38" y="360" />
              <mxPoint x="290" y="360" />
              <mxPoint x="290" y="425" />
            </Array>
          </mxGeometry>
        </mxCell>
        <mxCell id="M_QnOvEOiUY6tevbWSJs-26" value="Usuário digita o que quer buscar" style="verticalLabelPosition=middle;verticalAlign=middle;html=1;shape=trapezoid;perimeter=trapezoidPerimeter;whiteSpace=wrap;size=0.23;arcSize=10;flipV=1;labelPosition=center;align=center;" parent="1" vertex="1">
          <mxGeometry x="-27.5" y="120" width="130" height="90" as="geometry" />
        </mxCell>
        <mxCell id="M_QnOvEOiUY6tevbWSJs-35" value="não" style="text;html=1;align=center;verticalAlign=middle;resizable=0;points=[];autosize=1;strokeColor=none;fillColor=none;" parent="1" vertex="1">
          <mxGeometry x="200" y="420" width="40" height="30" as="geometry" />
        </mxCell>
        <mxCell id="M_QnOvEOiUY6tevbWSJs-36" value="sim" style="text;html=1;align=center;verticalAlign=middle;resizable=0;points=[];autosize=1;strokeColor=none;fillColor=none;" parent="1" vertex="1">
          <mxGeometry x="460" y="420" width="40" height="30" as="geometry" />
        </mxCell>
        <mxCell id="Gtfet5FwH3J6q3p8mjaK-4" value="Listar id do db" style="rounded=0;whiteSpace=wrap;html=1;" parent="1" vertex="1">
          <mxGeometry x="80" y="640" width="120" height="60" as="geometry" />
        </mxCell>
        <mxCell id="Gtfet5FwH3J6q3p8mjaK-26" style="edgeStyle=orthogonalEdgeStyle;rounded=0;orthogonalLoop=1;jettySize=auto;html=1;" parent="1" source="M_QnOvEOiUY6tevbWSJs-8" target="M_QnOvEOiUY6tevbWSJs-18" edge="1">
          <mxGeometry relative="1" as="geometry" />
        </mxCell>
        <mxCell id="M_QnOvEOiUY6tevbWSJs-8" value="Quer quer a busca se repita rotineiramente?" style="rhombus;whiteSpace=wrap;html=1;" parent="1" vertex="1">
          <mxGeometry x="262.5" y="400" width="150" height="100" as="geometry" />
        </mxCell>
        <mxCell id="6NojlRm1C0mRp0ljfeSa-29" style="edgeStyle=orthogonalEdgeStyle;rounded=0;orthogonalLoop=1;jettySize=auto;html=1;entryX=0.5;entryY=0;entryDx=0;entryDy=0;" edge="1" parent="1" source="6NojlRm1C0mRp0ljfeSa-18" target="6NojlRm1C0mRp0ljfeSa-21">
          <mxGeometry relative="1" as="geometry" />
        </mxCell>
        <mxCell id="6NojlRm1C0mRp0ljfeSa-18" value="Acessa API e verificação" style="rounded=0;whiteSpace=wrap;html=1;direction=east;" vertex="1" parent="1">
          <mxGeometry x="500" y="520" width="120" height="60" as="geometry" />
        </mxCell>
        <mxCell id="6NojlRm1C0mRp0ljfeSa-20" style="edgeStyle=orthogonalEdgeStyle;rounded=0;orthogonalLoop=1;jettySize=auto;html=1;entryX=1;entryY=0.5;entryDx=0;entryDy=0;" edge="1" parent="1" source="6NojlRm1C0mRp0ljfeSa-21" target="6NojlRm1C0mRp0ljfeSa-22">
          <mxGeometry relative="1" as="geometry" />
        </mxCell>
        <mxCell id="6NojlRm1C0mRp0ljfeSa-30" style="edgeStyle=orthogonalEdgeStyle;rounded=0;orthogonalLoop=1;jettySize=auto;html=1;" edge="1" parent="1" source="6NojlRm1C0mRp0ljfeSa-21" target="6NojlRm1C0mRp0ljfeSa-24">
          <mxGeometry relative="1" as="geometry" />
        </mxCell>
        <mxCell id="6NojlRm1C0mRp0ljfeSa-21" value="Tem dados novos?" style="rhombus;whiteSpace=wrap;html=1;" vertex="1" parent="1">
          <mxGeometry x="520" y="610" width="80" height="80" as="geometry" />
        </mxCell>
        <mxCell id="6NojlRm1C0mRp0ljfeSa-22" value="Aguarda 24hrs" style="rounded=0;whiteSpace=wrap;html=1;" vertex="1" parent="1">
          <mxGeometry x="330" y="620" width="120" height="60" as="geometry" />
        </mxCell>
        <mxCell id="6NojlRm1C0mRp0ljfeSa-23" style="edgeStyle=orthogonalEdgeStyle;rounded=0;orthogonalLoop=1;jettySize=auto;html=1;entryX=0.5;entryY=1;entryDx=0;entryDy=0;exitX=0.5;exitY=1;exitDx=0;exitDy=0;" edge="1" parent="1" source="6NojlRm1C0mRp0ljfeSa-24" target="6NojlRm1C0mRp0ljfeSa-22">
          <mxGeometry relative="1" as="geometry">
            <mxPoint x="360" y="1010" as="targetPoint" />
            <Array as="points">
              <mxPoint x="753" y="700" />
              <mxPoint x="390" y="700" />
            </Array>
            <mxPoint x="760" y="680" as="sourcePoint" />
          </mxGeometry>
        </mxCell>
        <mxCell id="6NojlRm1C0mRp0ljfeSa-24" value="Adiciona o id do db no DB, lista ele e notifica via telegram" style="rounded=0;whiteSpace=wrap;html=1;" vertex="1" parent="1">
          <mxGeometry x="692.5" y="620" width="120" height="60" as="geometry" />
        </mxCell>
        <mxCell id="6NojlRm1C0mRp0ljfeSa-25" value="sim" style="text;html=1;align=center;verticalAlign=middle;resizable=0;points=[];autosize=1;strokeColor=none;fillColor=none;" vertex="1" parent="1">
          <mxGeometry x="652.5" y="620" width="40" height="30" as="geometry" />
        </mxCell>
        <mxCell id="6NojlRm1C0mRp0ljfeSa-26" value="não" style="text;html=1;align=center;verticalAlign=middle;resizable=0;points=[];autosize=1;strokeColor=none;fillColor=none;" vertex="1" parent="1">
          <mxGeometry x="450" y="620" width="40" height="30" as="geometry" />
        </mxCell>
        <mxCell id="6NojlRm1C0mRp0ljfeSa-36" style="edgeStyle=orthogonalEdgeStyle;rounded=0;orthogonalLoop=1;jettySize=auto;html=1;entryX=1;entryY=0.5;entryDx=0;entryDy=0;" edge="1" parent="1" source="6NojlRm1C0mRp0ljfeSa-34" target="M_QnOvEOiUY6tevbWSJs-26">
          <mxGeometry relative="1" as="geometry">
            <mxPoint x="170" y="160" as="targetPoint" />
            <Array as="points">
              <mxPoint x="220" y="165" />
              <mxPoint x="220" y="165" />
            </Array>
          </mxGeometry>
        </mxCell>
        <mxCell id="6NojlRm1C0mRp0ljfeSa-39" style="edgeStyle=orthogonalEdgeStyle;rounded=0;orthogonalLoop=1;jettySize=auto;html=1;" edge="1" parent="1" source="6NojlRm1C0mRp0ljfeSa-34">
          <mxGeometry relative="1" as="geometry">
            <mxPoint x="550" y="160" as="targetPoint" />
          </mxGeometry>
        </mxCell>
        <mxCell id="6NojlRm1C0mRp0ljfeSa-34" value="Quer usar uma busca anterior?" style="rhombus;whiteSpace=wrap;html=1;" vertex="1" parent="1">
          <mxGeometry x="262.5" y="110" width="150" height="100" as="geometry" />
        </mxCell>
        <mxCell id="6NojlRm1C0mRp0ljfeSa-37" value="não" style="text;html=1;align=center;verticalAlign=middle;resizable=0;points=[];autosize=1;strokeColor=none;fillColor=none;" vertex="1" parent="1">
          <mxGeometry x="102.5" y="130" width="40" height="30" as="geometry" />
        </mxCell>
        <mxCell id="6NojlRm1C0mRp0ljfeSa-40" value="sim" style="text;html=1;align=center;verticalAlign=middle;resizable=0;points=[];autosize=1;strokeColor=none;fillColor=none;" vertex="1" parent="1">
          <mxGeometry x="500" y="132" width="40" height="30" as="geometry" />
        </mxCell>
        <mxCell id="6NojlRm1C0mRp0ljfeSa-43" style="edgeStyle=orthogonalEdgeStyle;rounded=0;orthogonalLoop=1;jettySize=auto;html=1;" edge="1" parent="1" source="6NojlRm1C0mRp0ljfeSa-41" target="6NojlRm1C0mRp0ljfeSa-42">
          <mxGeometry relative="1" as="geometry" />
        </mxCell>
        <mxCell id="6NojlRm1C0mRp0ljfeSa-41" value="Lista as opções salvas no DB de pesquisas" style="rounded=0;whiteSpace=wrap;html=1;" vertex="1" parent="1">
          <mxGeometry x="550" y="130" width="120" height="60" as="geometry" />
        </mxCell>
        <mxCell id="6NojlRm1C0mRp0ljfeSa-48" style="edgeStyle=orthogonalEdgeStyle;rounded=0;orthogonalLoop=1;jettySize=auto;html=1;entryX=1;entryY=0;entryDx=0;entryDy=0;" edge="1" parent="1" source="6NojlRm1C0mRp0ljfeSa-42" target="M_QnOvEOiUY6tevbWSJs-8">
          <mxGeometry relative="1" as="geometry">
            <mxPoint x="390" y="360" as="targetPoint" />
            <Array as="points">
              <mxPoint x="610" y="335" />
              <mxPoint x="611" y="335" />
              <mxPoint x="611" y="360" />
              <mxPoint x="380" y="360" />
              <mxPoint x="380" y="425" />
            </Array>
          </mxGeometry>
        </mxCell>
        <mxCell id="6NojlRm1C0mRp0ljfeSa-42" value="Usuário escolhe" style="rounded=0;whiteSpace=wrap;html=1;" vertex="1" parent="1">
          <mxGeometry x="550" y="240" width="120" height="60" as="geometry" />
        </mxCell>
      </root>
    </mxGraphModel>
  </diagram>
</mxfile>
